<mxfile host="app.diagrams.net" agent="Mozilla/5.0 (Windows NT 10.0; Win64; x64) AppleWebKit/537.36 (KHTML, like Gecko) Chrome/128.0.0.0 Safari/537.36" version="24.7.12">
  <diagram name="Page-1" id="kIMUqWYpQiFc0VlccPSC">
    <mxGraphModel dx="1509" dy="777" grid="1" gridSize="10" guides="1" tooltips="1" connect="1" arrows="1" fold="1" page="1" pageScale="1" pageWidth="3300" pageHeight="4681" math="0" shadow="0">
      <root>
        <mxCell id="0" />
        <mxCell id="1" parent="0" />
        <mxCell id="J4y9EGVyNrogMtyehgwq-1" value="" style="ellipse;html=1;shape=startState;fillColor=#000000;strokeColor=#ff0000;" vertex="1" parent="1">
          <mxGeometry x="630" y="100" width="30" height="30" as="geometry" />
        </mxCell>
        <mxCell id="J4y9EGVyNrogMtyehgwq-2" value="" style="edgeStyle=orthogonalEdgeStyle;html=1;verticalAlign=bottom;endArrow=open;endSize=8;strokeColor=#ff0000;rounded=0;" edge="1" source="J4y9EGVyNrogMtyehgwq-1" parent="1">
          <mxGeometry relative="1" as="geometry">
            <mxPoint x="645" y="190" as="targetPoint" />
          </mxGeometry>
        </mxCell>
        <mxCell id="J4y9EGVyNrogMtyehgwq-3" value="START" style="text;html=1;align=center;verticalAlign=middle;resizable=0;points=[];autosize=1;strokeColor=none;fillColor=none;" vertex="1" parent="1">
          <mxGeometry x="615" y="70" width="60" height="30" as="geometry" />
        </mxCell>
        <mxCell id="J4y9EGVyNrogMtyehgwq-5" value="NEW BUSINESS ADMINISTRATOR" style="text;html=1;align=center;verticalAlign=middle;resizable=0;points=[];autosize=1;strokeColor=none;fillColor=none;" vertex="1" parent="1">
          <mxGeometry x="650" y="140" width="220" height="30" as="geometry" />
        </mxCell>
        <mxCell id="J4y9EGVyNrogMtyehgwq-8" style="edgeStyle=orthogonalEdgeStyle;rounded=0;orthogonalLoop=1;jettySize=auto;html=1;exitX=0.5;exitY=1;exitDx=0;exitDy=0;" edge="1" parent="1" source="J4y9EGVyNrogMtyehgwq-6">
          <mxGeometry relative="1" as="geometry">
            <mxPoint x="648" y="400" as="targetPoint" />
          </mxGeometry>
        </mxCell>
        <mxCell id="J4y9EGVyNrogMtyehgwq-6" value="Submission Form is&amp;nbsp; registered" style="rounded=1;whiteSpace=wrap;html=1;absoluteArcSize=1;arcSize=14;strokeWidth=2;" vertex="1" parent="1">
          <mxGeometry x="553" y="190" width="190" height="100" as="geometry" />
        </mxCell>
        <mxCell id="J4y9EGVyNrogMtyehgwq-10" style="edgeStyle=orthogonalEdgeStyle;rounded=0;orthogonalLoop=1;jettySize=auto;html=1;exitX=0.5;exitY=1;exitDx=0;exitDy=0;" edge="1" parent="1" source="J4y9EGVyNrogMtyehgwq-9">
          <mxGeometry relative="1" as="geometry">
            <mxPoint x="648" y="620" as="targetPoint" />
          </mxGeometry>
        </mxCell>
        <mxCell id="J4y9EGVyNrogMtyehgwq-9" value="Records Submissions" style="rounded=1;whiteSpace=wrap;html=1;absoluteArcSize=1;arcSize=14;strokeWidth=2;" vertex="1" parent="1">
          <mxGeometry x="553" y="400" width="190" height="100" as="geometry" />
        </mxCell>
        <mxCell id="J4y9EGVyNrogMtyehgwq-12" style="edgeStyle=orthogonalEdgeStyle;rounded=0;orthogonalLoop=1;jettySize=auto;html=1;exitX=1;exitY=0.5;exitDx=0;exitDy=0;" edge="1" parent="1" source="J4y9EGVyNrogMtyehgwq-11">
          <mxGeometry relative="1" as="geometry">
            <mxPoint x="880" y="670" as="targetPoint" />
          </mxGeometry>
        </mxCell>
        <mxCell id="J4y9EGVyNrogMtyehgwq-11" value="Checks Submitted documents and policy information are correct and complete" style="rounded=1;whiteSpace=wrap;html=1;absoluteArcSize=1;arcSize=14;strokeWidth=2;" vertex="1" parent="1">
          <mxGeometry x="553" y="620" width="190" height="100" as="geometry" />
        </mxCell>
        <mxCell id="J4y9EGVyNrogMtyehgwq-14" style="edgeStyle=orthogonalEdgeStyle;rounded=0;orthogonalLoop=1;jettySize=auto;html=1;exitX=0.5;exitY=0;exitDx=0;exitDy=0;exitPerimeter=0;entryX=1;entryY=0.5;entryDx=0;entryDy=0;" edge="1" parent="1" source="J4y9EGVyNrogMtyehgwq-13" target="J4y9EGVyNrogMtyehgwq-6">
          <mxGeometry relative="1" as="geometry" />
        </mxCell>
        <mxCell id="J4y9EGVyNrogMtyehgwq-16" style="edgeStyle=orthogonalEdgeStyle;rounded=0;orthogonalLoop=1;jettySize=auto;html=1;exitX=1;exitY=0.5;exitDx=0;exitDy=0;exitPerimeter=0;" edge="1" parent="1" source="J4y9EGVyNrogMtyehgwq-13">
          <mxGeometry relative="1" as="geometry">
            <mxPoint x="1250" y="670.3684210526317" as="targetPoint" />
          </mxGeometry>
        </mxCell>
        <mxCell id="J4y9EGVyNrogMtyehgwq-13" value="Are Documents and Policy Information correct&lt;br&gt;&amp;nbsp;and complete?" style="strokeWidth=2;html=1;shape=mxgraph.flowchart.decision;whiteSpace=wrap;" vertex="1" parent="1">
          <mxGeometry x="880" y="580" width="193.33" height="180" as="geometry" />
        </mxCell>
        <mxCell id="J4y9EGVyNrogMtyehgwq-15" value="NO" style="text;html=1;align=center;verticalAlign=middle;resizable=0;points=[];autosize=1;strokeColor=none;fillColor=none;" vertex="1" parent="1">
          <mxGeometry x="980" y="538" width="40" height="30" as="geometry" />
        </mxCell>
        <mxCell id="J4y9EGVyNrogMtyehgwq-17" value="Stamps and Signs the submission&amp;nbsp;&lt;br&gt;form, proposal forms&amp;nbsp;" style="rounded=1;whiteSpace=wrap;html=1;absoluteArcSize=1;arcSize=14;strokeWidth=2;" vertex="1" parent="1">
          <mxGeometry x="1260" y="620" width="190" height="100" as="geometry" />
        </mxCell>
      </root>
    </mxGraphModel>
  </diagram>
</mxfile>
